<mxfile host="app.diagrams.net" modified="2021-11-17T14:58:41.347Z" agent="5.0 (Windows NT 10.0; Win64; x64) AppleWebKit/537.36 (KHTML, like Gecko) Chrome/95.0.4638.69 Safari/537.36" etag="SrSvLmXbUKogYP59V-0T" version="15.8.0" type="github">
  <diagram id="C5RBs43oDa-KdzZeNtuy" name="Flow Timesheet">
    <mxGraphModel dx="1185" dy="614" grid="1" gridSize="10" guides="1" tooltips="1" connect="1" arrows="1" fold="1" page="1" pageScale="1" pageWidth="827" pageHeight="1169" math="0" shadow="0">
      <root>
        <mxCell id="WIyWlLk6GJQsqaUBKTNV-0" />
        <mxCell id="WIyWlLk6GJQsqaUBKTNV-1" parent="WIyWlLk6GJQsqaUBKTNV-0" />
        <mxCell id="UO_zKhxHwcOODC3vsZWf-3" style="edgeStyle=orthogonalEdgeStyle;rounded=0;orthogonalLoop=1;jettySize=auto;html=1;fontSize=12;" edge="1" parent="WIyWlLk6GJQsqaUBKTNV-1" source="UO_zKhxHwcOODC3vsZWf-0" target="UO_zKhxHwcOODC3vsZWf-2">
          <mxGeometry relative="1" as="geometry" />
        </mxCell>
        <mxCell id="UO_zKhxHwcOODC3vsZWf-0" value="&lt;font style=&quot;font-size: 12px&quot;&gt;Start&lt;/font&gt;" style="strokeWidth=2;html=1;shape=mxgraph.flowchart.start_1;whiteSpace=wrap;" vertex="1" parent="WIyWlLk6GJQsqaUBKTNV-1">
          <mxGeometry x="387.5" y="110" width="120" height="60" as="geometry" />
        </mxCell>
        <mxCell id="UO_zKhxHwcOODC3vsZWf-8" style="edgeStyle=orthogonalEdgeStyle;rounded=0;orthogonalLoop=1;jettySize=auto;html=1;entryX=0.5;entryY=0;entryDx=0;entryDy=0;entryPerimeter=0;fontSize=12;" edge="1" parent="WIyWlLk6GJQsqaUBKTNV-1" source="UO_zKhxHwcOODC3vsZWf-2" target="UO_zKhxHwcOODC3vsZWf-7">
          <mxGeometry relative="1" as="geometry" />
        </mxCell>
        <mxCell id="UO_zKhxHwcOODC3vsZWf-2" value="&lt;div style=&quot;text-align: left&quot;&gt;&lt;span&gt;Show Timesheet Internal&lt;/span&gt;&lt;/div&gt;&lt;div style=&quot;text-align: left&quot;&gt;&lt;span&gt;*Customer&lt;/span&gt;&lt;/div&gt;&lt;div style=&quot;text-align: left&quot;&gt;&lt;span&gt;*Username&lt;/span&gt;&lt;/div&gt;&lt;div style=&quot;text-align: left&quot;&gt;&lt;span&gt;*From Date&amp;nbsp;&lt;/span&gt;&lt;/div&gt;&lt;div style=&quot;text-align: left&quot;&gt;&lt;span&gt;*To Date&lt;/span&gt;&lt;/div&gt;&lt;div style=&quot;text-align: left&quot;&gt;&lt;span&gt;*Duration&lt;/span&gt;&lt;/div&gt;&lt;div style=&quot;text-align: left&quot;&gt;&lt;span&gt;*Activity&lt;/span&gt;&lt;/div&gt;&lt;div style=&quot;text-align: left&quot;&gt;&lt;span&gt;*Remark&lt;/span&gt;&lt;/div&gt;&lt;div style=&quot;text-align: left&quot;&gt;&lt;span&gt;*Project ID &amp;amp; Name&lt;/span&gt;&lt;/div&gt;&lt;div style=&quot;text-align: left&quot;&gt;&lt;span&gt;*Task/Ticket ID &amp;amp; Name&lt;/span&gt;&lt;/div&gt;&lt;div style=&quot;text-align: left&quot;&gt;&lt;span&gt;*Cost&amp;nbsp;&lt;/span&gt;&lt;/div&gt;&lt;div style=&quot;text-align: left&quot;&gt;&lt;span&gt;*Price&lt;/span&gt;&lt;/div&gt;" style="shape=parallelogram;html=1;strokeWidth=2;perimeter=parallelogramPerimeter;whiteSpace=wrap;rounded=1;arcSize=12;size=0.23;fontSize=12;" vertex="1" parent="WIyWlLk6GJQsqaUBKTNV-1">
          <mxGeometry x="295" y="245" width="305" height="185" as="geometry" />
        </mxCell>
        <mxCell id="UO_zKhxHwcOODC3vsZWf-5" value="&lt;span&gt;user&lt;/span&gt;&lt;br&gt;&lt;span&gt;crm_task&lt;/span&gt;&lt;br&gt;&lt;span&gt;crm_project&lt;/span&gt;&lt;br&gt;&lt;span&gt;crm_project_allication&lt;/span&gt;&lt;br&gt;&lt;span&gt;crm_task_group&lt;/span&gt;&lt;br&gt;&lt;span&gt;crm_team_member&lt;/span&gt;" style="strokeWidth=2;html=1;shape=mxgraph.flowchart.direct_data;whiteSpace=wrap;fontSize=12;align=left;spacingLeft=5;" vertex="1" parent="WIyWlLk6GJQsqaUBKTNV-1">
          <mxGeometry x="730" y="190" width="160" height="95" as="geometry" />
        </mxCell>
        <mxCell id="UO_zKhxHwcOODC3vsZWf-10" value="YES" style="edgeStyle=orthogonalEdgeStyle;rounded=0;orthogonalLoop=1;jettySize=auto;html=1;fontSize=12;" edge="1" parent="WIyWlLk6GJQsqaUBKTNV-1" source="UO_zKhxHwcOODC3vsZWf-7" target="UO_zKhxHwcOODC3vsZWf-9">
          <mxGeometry relative="1" as="geometry" />
        </mxCell>
        <mxCell id="UO_zKhxHwcOODC3vsZWf-14" value="NO" style="edgeStyle=orthogonalEdgeStyle;rounded=0;orthogonalLoop=1;jettySize=auto;html=1;exitX=0.5;exitY=1;exitDx=0;exitDy=0;exitPerimeter=0;fontSize=12;" edge="1" parent="WIyWlLk6GJQsqaUBKTNV-1" source="UO_zKhxHwcOODC3vsZWf-7" target="UO_zKhxHwcOODC3vsZWf-11">
          <mxGeometry relative="1" as="geometry" />
        </mxCell>
        <mxCell id="UO_zKhxHwcOODC3vsZWf-7" value="Tab Internal?&amp;nbsp;" style="strokeWidth=2;html=1;shape=mxgraph.flowchart.decision;whiteSpace=wrap;fontSize=12;align=center;" vertex="1" parent="WIyWlLk6GJQsqaUBKTNV-1">
          <mxGeometry x="392.5" y="520" width="110" height="100" as="geometry" />
        </mxCell>
        <mxCell id="UO_zKhxHwcOODC3vsZWf-9" value="&lt;div style=&quot;text-align: left&quot;&gt;&lt;span&gt;Show Timesheet External&lt;/span&gt;&lt;/div&gt;&lt;div style=&quot;text-align: left&quot;&gt;&lt;span&gt;*Customer&lt;/span&gt;&lt;/div&gt;&lt;div style=&quot;text-align: left&quot;&gt;&lt;span&gt;*Username&lt;/span&gt;&lt;/div&gt;&lt;div style=&quot;text-align: left&quot;&gt;&lt;span&gt;*From Date&amp;nbsp;&lt;/span&gt;&lt;/div&gt;&lt;div style=&quot;text-align: left&quot;&gt;&lt;span&gt;*To Date&lt;/span&gt;&lt;/div&gt;&lt;div style=&quot;text-align: left&quot;&gt;&lt;span&gt;*Duration&lt;/span&gt;&lt;/div&gt;&lt;div style=&quot;text-align: left&quot;&gt;&lt;span&gt;*Project Name&lt;/span&gt;&lt;/div&gt;&lt;div style=&quot;text-align: left&quot;&gt;&lt;span&gt;*Project ID&lt;/span&gt;&lt;/div&gt;&lt;div style=&quot;text-align: left&quot;&gt;&lt;span&gt;*Task/Ticket ID &amp;amp; Name&lt;/span&gt;&lt;/div&gt;&lt;div style=&quot;text-align: left&quot;&gt;&lt;span&gt;*Price&lt;/span&gt;&lt;/div&gt;" style="shape=parallelogram;html=1;strokeWidth=2;perimeter=parallelogramPerimeter;whiteSpace=wrap;rounded=1;arcSize=12;size=0.23;fontSize=12;" vertex="1" parent="WIyWlLk6GJQsqaUBKTNV-1">
          <mxGeometry x="610" y="477.5" width="305" height="185" as="geometry" />
        </mxCell>
        <mxCell id="UO_zKhxHwcOODC3vsZWf-13" value="YES" style="edgeStyle=orthogonalEdgeStyle;rounded=0;orthogonalLoop=1;jettySize=auto;html=1;fontSize=12;" edge="1" parent="WIyWlLk6GJQsqaUBKTNV-1" source="UO_zKhxHwcOODC3vsZWf-11" target="UO_zKhxHwcOODC3vsZWf-12">
          <mxGeometry relative="1" as="geometry" />
        </mxCell>
        <mxCell id="UO_zKhxHwcOODC3vsZWf-19" value="NO" style="edgeStyle=orthogonalEdgeStyle;rounded=0;orthogonalLoop=1;jettySize=auto;html=1;exitX=0.5;exitY=1;exitDx=0;exitDy=0;exitPerimeter=0;entryX=0.5;entryY=0;entryDx=0;entryDy=0;entryPerimeter=0;fontSize=12;" edge="1" parent="WIyWlLk6GJQsqaUBKTNV-1" source="UO_zKhxHwcOODC3vsZWf-11" target="UO_zKhxHwcOODC3vsZWf-18">
          <mxGeometry relative="1" as="geometry" />
        </mxCell>
        <mxCell id="UO_zKhxHwcOODC3vsZWf-11" value="Tab Calendar?&amp;nbsp;" style="strokeWidth=2;html=1;shape=mxgraph.flowchart.decision;whiteSpace=wrap;fontSize=12;align=center;" vertex="1" parent="WIyWlLk6GJQsqaUBKTNV-1">
          <mxGeometry x="392.5" y="730" width="110" height="100" as="geometry" />
        </mxCell>
        <mxCell id="UO_zKhxHwcOODC3vsZWf-12" value="&lt;div style=&quot;text-align: left&quot;&gt;&lt;span&gt;Show Timesheet Calendar&lt;/span&gt;&lt;/div&gt;&lt;div style=&quot;text-align: left&quot;&gt;&lt;span&gt;*Manager / Member Name&amp;nbsp;&lt;/span&gt;&lt;/div&gt;&lt;div style=&quot;text-align: left&quot;&gt;&lt;span&gt;*Duration&amp;nbsp;&lt;/span&gt;&lt;/div&gt;" style="shape=parallelogram;html=1;strokeWidth=2;perimeter=parallelogramPerimeter;whiteSpace=wrap;rounded=1;arcSize=12;size=0.23;fontSize=12;" vertex="1" parent="WIyWlLk6GJQsqaUBKTNV-1">
          <mxGeometry y="687.5" width="305" height="185" as="geometry" />
        </mxCell>
        <mxCell id="UO_zKhxHwcOODC3vsZWf-21" value="YES" style="edgeStyle=orthogonalEdgeStyle;rounded=0;orthogonalLoop=1;jettySize=auto;html=1;exitX=1;exitY=0.5;exitDx=0;exitDy=0;exitPerimeter=0;fontSize=12;" edge="1" parent="WIyWlLk6GJQsqaUBKTNV-1" source="UO_zKhxHwcOODC3vsZWf-18" target="UO_zKhxHwcOODC3vsZWf-20">
          <mxGeometry relative="1" as="geometry" />
        </mxCell>
        <mxCell id="UO_zKhxHwcOODC3vsZWf-23" style="edgeStyle=orthogonalEdgeStyle;rounded=0;orthogonalLoop=1;jettySize=auto;html=1;exitX=0.5;exitY=1;exitDx=0;exitDy=0;exitPerimeter=0;fontSize=12;" edge="1" parent="WIyWlLk6GJQsqaUBKTNV-1" source="UO_zKhxHwcOODC3vsZWf-18" target="UO_zKhxHwcOODC3vsZWf-22">
          <mxGeometry relative="1" as="geometry" />
        </mxCell>
        <mxCell id="UO_zKhxHwcOODC3vsZWf-18" value="Filter Global?" style="strokeWidth=2;html=1;shape=mxgraph.flowchart.decision;whiteSpace=wrap;fontSize=12;align=center;" vertex="1" parent="WIyWlLk6GJQsqaUBKTNV-1">
          <mxGeometry x="392.5" y="948" width="110" height="100" as="geometry" />
        </mxCell>
        <mxCell id="UO_zKhxHwcOODC3vsZWf-20" value="&lt;div style=&quot;text-align: left&quot;&gt;&lt;span&gt;Show Timesheet Internal, External, &lt;br&gt;Calendar by Date Range / User /&amp;nbsp;&lt;/span&gt;&lt;/div&gt;&lt;div style=&quot;text-align: left&quot;&gt;&lt;span&gt;Customer / Project&lt;/span&gt;&lt;/div&gt;" style="shape=parallelogram;html=1;strokeWidth=2;perimeter=parallelogramPerimeter;whiteSpace=wrap;rounded=1;arcSize=12;size=0.23;fontSize=12;" vertex="1" parent="WIyWlLk6GJQsqaUBKTNV-1">
          <mxGeometry x="600" y="905.5" width="305" height="185" as="geometry" />
        </mxCell>
        <mxCell id="UO_zKhxHwcOODC3vsZWf-22" value="&lt;font style=&quot;font-size: 12px&quot;&gt;End&lt;/font&gt;" style="strokeWidth=2;html=1;shape=mxgraph.flowchart.start_1;whiteSpace=wrap;" vertex="1" parent="WIyWlLk6GJQsqaUBKTNV-1">
          <mxGeometry x="387.5" y="1180" width="120" height="60" as="geometry" />
        </mxCell>
      </root>
    </mxGraphModel>
  </diagram>
</mxfile>
